<?xml version="1.0" encoding="utf-8"?>
<!-- Generator: Adobe Illustrator 21.1.0, SVG Export Plug-In . SVG Version: 6.00 Build 0)  -->
<svg version="1.1" xmlns="http://www.w3.org/2000/svg" xmlns:xlink="http://www.w3.org/1999/xlink" x="0px" y="0px"
	 viewBox="0 0 200 200" style="enable-background:new 0 0 200 200;" xml:space="preserve">
<style type="text/css">
	.st0{fill:#FFFFFF;}
	.st1{font-family:'FranklinGothic-Medium';}
	.st2{font-size:100px;}
</style>
<g id="Layer_1">
</g>
<g id="Layer_2">
	<g>
		<path d="M100,180.5c-44.4,0-80.5-36.1-80.5-80.5S55.6,19.5,100,19.5s80.5,36.1,80.5,80.5S144.4,180.5,100,180.5z"/>
		<path d="M100,20c44.1,0,80,35.9,80,80s-35.9,80-80,80s-80-35.9-80-80S55.9,20,100,20 M100,19c-44.7,0-81,36.3-81,81s36.3,81,81,81
			s81-36.3,81-81S144.7,19,100,19L100,19z"/>
	</g>
	<text transform="matrix(1 0 0 1 36.6665 126.3335)" class="st0 st1 st2">a</text>
	<text transform="matrix(1 0 0 1 86 126)" class="st0 st1 st2">m</text>
</g>
</svg>
